<svg width="1118" height="1338" viewBox="0 0 1118 1338" fill="none" xmlns="http://www.w3.org/2000/svg">
<path d="M545.65 146.282C383.869 459.493 354.638 858.073 421.676 1186.88C424.195 1199.23 440.234 1203.16 448.755 1193.86C478.924 1160.95 536.47 1105.8 580.505 1109.42C611.176 1111.93 648.101 1154.01 670.338 1183.39C678.259 1193.85 695.499 1190.84 698.473 1178.06C778.42 834.45 732.46 441.228 571.253 145.976C565.642 135.698 551.023 135.878 545.65 146.282Z" fill="#9DC7CC" stroke="black" stroke-width="5"/>
<path d="M390.585 859.769L732.917 777.023M732.282 748.957L387.205 828.566M386.514 798.013L734.384 723.672M733.693 693.119L388.463 765.978" stroke="black" stroke-width="5"/>
<path d="M393.497 810.502L727.996 737.503" stroke="#EEFF92" stroke-width="18"/>
<line x1="393.929" y1="843.243" x2="726.624" y2="764.62" stroke="#CEDAE2" stroke-width="18"/>
<line x1="394.941" y1="781.22" x2="725.932" y2="711.22" stroke="#CEDAE2" stroke-width="20"/>
</svg>
